<?xml version="1.0" encoding="UTF-8" standalone="no"?>
<svg 
   xmlns="http://www.w3.org/2000/svg"
   xmlns:xlink="http://www.w3.org/1999/xlink"
   width="1200"
   height="800"
   viewBox="0 0 1200 800"
   version="1.1">

  <!-- Background -->
  <rect width="1200" height="800" fill="#f0f0f0"/>

  <!-- Title -->
  <text x="600" y="30" text-anchor="middle" font-family="Arial, sans-serif" font-size="24" font-weight="bold" fill="#333">
    HeuristicMesh Breadboard Layout - ESP32-S3 + 2×AMG8833 + USR-TCP232
  </text>
  <text x="600" y="55" text-anchor="middle" font-family="Arial, sans-serif" font-size="14" fill="#666">
    Version 1.1 | AMG8833-Only Configuration | 2026-08-30
  </text>

  <!-- Legend -->
  <g transform="translate(950, 50)">
    <rect x="0" y="0" width="240" height="180" fill="white" stroke="#ccc" stroke-width="1" rx="5"/>
    <text x="10" y="25" font-family="Arial, sans-serif" font-size="14" font-weight="bold" fill="#333">Legend</text>
    
    <g transform="translate(10, 45)">
      <rect x="0" y="0" width="12" height="12" fill="#ff6b6b"/>
      <text x="18" y="10" font-family="Arial, sans-serif" font-size="12" fill="#333">5V Power</text>
    </g>
    
    <g transform="translate(10, 65)">
      <rect x="0" y="0" width="12" height="12" fill="#ffa500"/>
      <text x="18" y="10" font-family="Arial, sans-serif" font-size="12" fill="#333">3.3V Power</text>
    </g>
    
    <g transform="translate(10, 85)">
      <rect x="0" y="0" width="12" height="12" fill="#000"/>
      <text x="18" y="10" font-family="Arial, sans-serif" font-size="12" fill="#333">GND</text>
    </g>
    
    <g transform="translate(10, 105)">
      <path d="M0,6 L12,6" stroke="#1e90ff" stroke-width="2"/>
      <text x="18" y="10" font-family="Arial, sans-serif" font-size="12" fill="#333">I2C SDA</text>
    </g>
    
    <g transform="translate(10, 125)">
      <path d="M0,6 L12,6" stroke="#32cd32" stroke-width="2"/>
      <text x="18" y="10" font-family="Arial, sans-serif" font-size="12" fill="#333">I2C SCL</text>
    </g>
    
    <g transform="translate(10, 145)">
      <path d="M0,6 L12,6" stroke="#9400d3" stroke-width="2"/>
      <text x="18" y="10" font-family="Arial, sans-serif" font-size="12" fill="#333">UART TX</text>
    </g>
    
    <g transform="translate(10, 165)">
      <path d="M0,6 L12,6" stroke="#808080" stroke-width="2"/>
      <text x="18" y="10" font-family="Arial, sans-serif" font-size="12" fill="#333">UART RX</text>
    </g>
  </g>

  <!-- Breadboard Outline -->
  <g transform="translate(50, 100)">
    <!-- Breadboard base -->
    <rect x="0" y="0" width="1000" height="600" fill="white" stroke="#333" stroke-width="3" rx="10"/>
    
    <!-- Breadboard label -->
    <text x="500" y="20" text-anchor="middle" font-family="Arial, sans-serif" font-size="16" font-weight="bold" fill="#333">
      Breadboard (830+ Points)
    </text>
    
    <!-- Power rails (top) -->
    <rect x="20" y="40" width="960" height="30" fill="#e0e0e0" stroke="#999" stroke-width="1"/>
    <text x="50" y="60" font-family="Arial, sans-serif" font-size="12" font-weight="bold" fill="#ff6b6b">+5V</text>
    <text x="950" y="60" font-family="Arial, sans-serif" font-size="12" font-weight="bold" fill="#ff6b6b">+5V</text>
    
    <!-- Power rails (bottom) -->
    <rect x="20" y="530" width="960" height="30" fill="#e0e0e0" stroke="#999" stroke-width="1"/>
    <text x="50" y="550" font-family="Arial, sans-serif" font-size="12" font-weight="bold" fill="#000">GND</text>
    <text x="950" y="550" font-family="Arial, sans-serif" font-size="12" font-weight="bold" fill="#000">GND</text>
    
    <!-- 3.3V rails (inner) -->
    <rect x="20" y="75" width="960" height="25" fill="#fff8dc" stroke="#999" stroke-width="1"/>
    <text x="50" y="92" font-family="Arial, sans-serif" font-size="12" font-weight="bold" fill="#ffa500">+3.3V</text>
    <text x="950" y="92" font-family="Arial, sans-serif" font-size="12" font-weight="bold" fill="#ffa500">+3.3V</text>
    
    <!-- GND rails (inner) -->
    <rect x="20" y="505" width="960" height="25" fill="#e0e0e0" stroke="#999" stroke-width="1"/>
    <text x="50" y="522" font-family="Arial, sans-serif" font-size="12" font-weight="bold" fill="#000">GND</text>
    <text x="950" y="522" font-family="Arial, sans-serif" font-size="12" font-weight="bold" fill="#000">GND</text>
    
    <!-- Column labels -->
    <g font-family="Arial, sans-serif" font-size="10" fill="#666">
      <text x="30" y="35">A</text>
      <text x="80" y="35">B</text>
      <text x="130" y="35">C</text>
      <text x="180" y="35">D</text>
      <text x="230" y="35">E</text>
      <text x="280" y="35">F</text>
      <text x="330" y="35">G</text>
      <text x="380" y="35">H</text>
      <text x="430" y="35">I</text>
      <text x="480" y="35">J</text>
      <text x="530" y="35">K</text>
      <text x="580" y="35">L</text>
      <text x="630" y="35">M</text>
      <text x="680" y="35">N</text>
      <text x="730" y="35">O</text>
      <text x="780" y="35">P</text>
      <text x="830" y="35">Q</text>
      <text x="880" y="35">R</text>
      <text x="930" y="35">S</text>
      <text x="980" y="35">T</text>
    </g>
    
    <!-- Row labels (every 10 rows) -->
    <g font-family="Arial, sans-serif" font-size="10" fill="#666">
      <text x="15" y="70">1</text>
      <text x="15" y="120">10</text>
      <text x="15" y="170">20</text>
      <text x="15" y="220">30</text>
      <text x="15" y="270">40</text>
      <text x="15" y="320">50</text>
      <text x="15" y="370">60</text>
      <text x="15" y="420">70</text>
      <text x="15" y="470">80</text>
      <text x="15" y="520">90</text>
      <text x="15" y="570">100</text>
    </g>
    
    <!-- ESP32-S3 DevKitC-1 (Position: A1-J30) -->
    <g transform="translate(30, 80)">
      <!-- ESP32 board outline -->
      <rect x="0" y="0" width="220" height="140" fill="#4a4a4a" stroke="#2a2a2a" stroke-width="2" rx="5"/>
      
      <!-- ESP32 label -->
      <text x="110" y="15" text-anchor="middle" font-family="Arial, sans-serif" font-size="14" font-weight="bold" fill="white">
        ESP32-S3 DevKitC-1
      </text>
      
      <!-- USB-C port -->
      <rect x="180" y="60" width="25" height="15" fill="#333" rx="2"/>
      <text x="192" y="72" font-family="Arial, sans-serif" font-size="8" fill="white">USB-C</text>
      
      <!-- Pins -->
      <g font-family="Arial, sans-serif" font-size="8" fill="white">
        <!-- Left side pins -->
        <circle cx="10" cy="30" r="3" fill="white"/>
        <text x="15" y="25">GND</text>
        
        <circle cx="10" cy="50" r="3" fill="white"/>
        <text x="15" y="45">3.3V</text>
        
        <circle cx="10" cy="70" r="3" fill="white"/>
        <text x="15" y="65">EN</text>
        
        <circle cx="10" cy="90" r="3" fill="white"/>
        <text x="15" y="85">GPIO 34</text>
        
        <circle cx="10" cy="110" r="3" fill="white"/>
        <text x="15" y="105">GPIO 35</text>
        
        <circle cx="10" cy="130" r="3" fill="white"/>
        <text x="15" y="125">GPIO 36</text>
        
        <!-- Right side pins -->
        <circle cx="210" cy="30" r="3" fill="white"/>
        <text x="205" y="25" text-anchor="end">GPIO 39</text>
        
        <circle cx="210" cy="50" r="3" fill="white"/>
        <text x="205" y="45" text-anchor="end">GPIO 38</text>
        
        <circle cx="210" cy="70" r="3" fill="white"/>
        <text x="205" y="65" text-anchor="end">GPIO 37</text>
        
        <circle cx="210" cy="90" r="3" fill="white"/>
        <text x="205" y="85" text-anchor="end">GPIO 33</text>
        
        <circle cx="210" cy="110" r="3" fill="white"/>
        <text x="205" y="105" text-anchor="end">GPIO 32</text>
        
        <circle cx="210" cy="130" r="3" fill="white"/>
        <text x="205" y="125" text-anchor="end">GPIO 25</text>
        
        <!-- Bottom pins -->
        <circle cx="60" cy="145" r="3" fill="white"/>
        <text x="65" y="140">GPIO 26</text>
        
        <circle cx="80" cy="145" r="3" fill="white"/>
        <text x="85" y="140">GPIO 27</text>
        
        <circle cx="100" cy="145" r="3" fill="white"/>
        <text x="105" y="140">GPIO 14</text>
        
        <circle cx="120" cy="145" r="3" fill="white"/>
        <text x="125" y="140">GPIO 12</text>
        
        <circle cx="140" cy="145" r="3" fill="white"/>
        <text x="145" y="140">GPIO 13</text>
        
        <circle cx="160" cy="145" r="3" fill="white"/>
        <text x="165" y="140">5V</text>
        
        <circle cx="180" cy="145" r="3" fill="white"/>
        <text x="185" y="140">GND</text>
        
        <!-- Top pins -->
        <circle cx="60" cy="-5" r="3" fill="white"/>
        <text x="65" y="0">GPIO 9</text>
        
        <circle cx="80" cy="-5" r="3" fill="white"/>
        <text x="85" y="0">GPIO 8</text>
        
        <circle cx="100" cy="-5" r="3" fill="white"/>
        <text x="105" y="0">GPIO 46</text>
        
        <circle cx="120" cy="-5" r="3" fill="white"/>
        <text x="125" y="0">GPIO 7</text>
        
        <circle cx="140" cy="-5" r="3" fill="white"/>
        <text x="145" y="0">GPIO 6</text>
        
        <circle cx="160" cy="-5" r="3" fill="white"/>
        <text x="165" y="0">GPIO 5</text>
        
        <circle cx="180" cy="-5" r="3" fill="white"/>
        <text x="185" y="0">GPIO 4</text>
      </g>
      
      <!-- Highlight important pins -->
      <circle cx="80" cy="-5" r="5" fill="none" stroke="#1e90ff" stroke-width="2"/>
      <text x="85" y="-10" font-family="Arial, sans-serif" font-size="8" fill="#1e90ff">SDA</text>
      
      <circle cx="60" cy="-5" r="5" fill="none" stroke="#32cd32" stroke-width="2"/>
      <text x="65" y="-10" font-family="Arial, sans-serif" font-size="8" fill="#32cd32">SCL</text>
      
      <circle cx="180" cy="145" r="5" fill="none" stroke="#ff6b6b" stroke-width="2"/>
      <text x="185" y="150" font-family="Arial, sans-serif" font-size="8" fill="#ff6b6b">5V</text>
      
      <circle cx="200" cy="145" r="5" fill="none" stroke="#000" stroke-width="2"/>
      <text x="205" y="150" font-family="Arial, sans-serif" font-size="8" fill="#000">GND</text>
    </g>
    
    <!-- AMG8833 #1 (Position: L1-S15) -->
    <g transform="translate(630, 180)">
      <!-- Sensor outline -->
      <rect x="0" y="0" width="80" height="60" fill="#8b4513" stroke="#5d2906" stroke-width="2" rx="3"/>
      
      <!-- Sensor label -->
      <text x="40" y="10" text-anchor="middle" font-family="Arial, sans-serif" font-size="10" font-weight="bold" fill="white">
        AMG8833
      </text>
      <text x="40" y="22" text-anchor="middle" font-family="Arial, sans-serif" font-size="8" fill="white">
        #1 (0x69)
      </text>
      
      <!-- Pins -->
      <g font-family="Arial, sans-serif" font-size="7" fill="white">
        <circle cx="10" cy="30" r="2" fill="white"/>
        <text x="15" y="25">VDD</text>
        
        <circle cx="10" cy="40" r="2" fill="white"/>
        <text x="15" y="35">GND</text>
        
        <circle cx="10" cy="50" r="2" fill="white"/>
        <text x="15" y="45">SDA</text>
        
        <circle cx="70" cy="30" r="2" fill="white"/>
        <text x="65" y="25" text-anchor="end">SCL</text>
        
        <circle cx="70" cy="40" r="2" fill="white"/>
        <text x="65" y="35" text-anchor="end">AD0</text>
        
        <circle cx="70" cy="50" r="2" fill="white"/>
        <text x="65" y="45" text-anchor="end">INT</text>
      </g>
    </g>
    
    <!-- AMG8833 #2 (Position: L16-S30) -->
    <g transform="translate(630, 330)">
      <!-- Sensor outline -->
      <rect x="0" y="0" width="80" height="60" fill="#8b4513" stroke="#5d2906" stroke-width="2" rx="3"/>
      
      <!-- Sensor label -->
      <text x="40" y="10" text-anchor="middle" font-family="Arial, sans-serif" font-size="10" font-weight="bold" fill="white">
        AMG8833
      </text>
      <text x="40" y="22" text-anchor="middle" font-family="Arial, sans-serif" font-size="8" fill="white">
        #2 (0x68)
      </text>
      
      <!-- Pins -->
      <g font-family="Arial, sans-serif" font-size="7" fill="white">
        <circle cx="10" cy="30" r="2" fill="white"/>
        <text x="15" y="25">VDD</text>
        
        <circle cx="10" cy="40" r="2" fill="white"/>
        <text x="15" y="35">GND</text>
        
        <circle cx="10" cy="50" r="2" fill="white"/>
        <text x="15" y="45">SDA</text>
        
        <circle cx="70" cy="30" r="2" fill="white"/>
        <text x="65" y="25" text-anchor="end">SCL</text>
        
        <circle cx="70" cy="40" r="2" fill="white"/>
        <text x="65" y="35" text-anchor="end">AD0</text>
        
        <circle cx="70" cy="50" r="2" fill="white"/>
        <text x="65" y="45" text-anchor="end">INT</text>
      </g>
    </g>
    
    <!-- USR-TCP232 (Position: A31-H60) -->
    <g transform="translate(30, 430)">
      <!-- USR-TCP232 outline -->
      <rect x="0" y="0" width="200" height="120" fill="#2c3e50" stroke="#1a252f" stroke-width="2" rx="5"/>
      
      <!-- USR-TCP232 label -->
      <text x="100" y="15" text-anchor="middle" font-family="Arial, sans-serif" font-size="12" font-weight="bold" fill="white">
        USR-TCP232-410S
      </text>
      
      <!-- Ethernet port -->
      <rect x="170" y="50" width="20" height="30" fill="#333" rx="3"/>
      <text x="180" y="65" font-family="Arial, sans-serif" font-size="8" fill="white" transform="rotate(90, 180, 65)">
        ETHERNET
      </text>
      
      <!-- Pins -->
      <g font-family="Arial, sans-serif" font-size="8" fill="white">
        <circle cx="20" cy="30" r="3" fill="white"/>
        <text x="25" y="25">VCC</text>
        
        <circle cx="20" cy="50" r="3" fill="white"/>
        <text x="25" y="45">GND</text>
        
        <circle cx="20" cy="70" r="3" fill="white"/>
        <text x="25" y="65">TXD</text>
        
        <circle cx="20" cy="90" r="3" fill="white"/>
        <text x="25" y="85">RXD</text>
        
        <circle cx="20" cy="110" r="3" fill="white"/>
        <text x="25" y="105">NC</text>
      </g>
    </g>
    
    <!-- Power Section (Position: E1-E5) -->
    <g transform="translate(330, 110)">
      <!-- Section label -->
      <text x="50" y="-10" text-anchor="middle" font-family="Arial, sans-serif" font-size="12" font-weight="bold" fill="#333">
        Power Section
      </text>
      
      <!-- AMS1117 Regulator -->
      <rect x="30" y="0" width="60" height="40" fill="#4682b4" stroke="#2a2a2a" stroke-width="1" rx="3"/>
      <text x="60" y="12" text-anchor="middle" font-family="Arial, sans-serif" font-size="8" font-weight="bold" fill="white">
        AMS1117
      </text>
      <text x="60" y="24" text-anchor="middle" font-family="Arial, sans-serif" font-size="8" fill="white">
        3.3V
      </text>
      
      <!-- Pins -->
      <g font-family="Arial, sans-serif" font-size="7" fill="#333">
        <circle cx="35" cy="5" r="2" fill="white" stroke="#4682b4" stroke-width="1"/>
        <text x="30" y="0" text-anchor="end">IN</text>
        
        <circle cx="35" cy="35" r="2" fill="white" stroke="#4682b4" stroke-width="1"/>
        <text x="30" y="30" text-anchor="end">GND</text>
        
        <circle cx="85" cy="20" r="2" fill="white" stroke="#4682b4" stroke-width="1"/>
        <text x="90" y="15">OUT</text>
      </g>
      
      <!-- 1N4007 Diode -->
      <g transform="translate(-20, -10)">
        <path d="M0,20 L20,0 L0,20" stroke="#000" stroke-width="2" fill="none"/>
        <line x1="0" y1="20" x2="0" y2="40" stroke="#000" stroke-width="2"/>
        <text x="25" y="25" font-family="Arial, sans-serif" font-size="8" fill="#333">1N4007</text>
      </g>
      
      <!-- Capacitors -->
      <g transform="translate(100, 0)">
        <!-- 10uF -->
        <rect x="0" y="0" width="8" height="20" fill="#ccc" stroke="#999" stroke-width="1"/>
        <line x1="4" y1="0" x2="4" y2="20" stroke="#999" stroke-width="1"/>
        <text x="0" y="30" font-family="Arial, sans-serif" font-size="8" fill="#333">10µF</text>
        <text x="0" y="40" font-family="Arial, sans-serif" font-size="6" fill="#666">+</text>
        
        <!-- 47uF -->
        <rect x="20" y="0" width="8" height="25" fill="#ccc" stroke="#999" stroke-width="1"/>
        <line x1="24" y1="0" x2="24" y2="25" stroke="#999" stroke-width="1"/>
        <text x="20" y="35" font-family="Arial, sans-serif" font-size="8" fill="#333">47µF</text>
        <text x="20" y="45" font-family="Arial, sans-serif" font-size="6" fill="#666">+</text>
        
        <!-- 100nF -->
        <rect x="40" y="5" width="12" height="8" fill="#ffd700" stroke="#999" stroke-width="1"/>
        <text x="40" y="25" font-family="Arial, sans-serif" font-size="8" fill="#333">100nF</text>
      </g>
    </g>
    
    <!-- Status LEDs (Position: A60-J60) -->
    <g transform="translate(30, 540)">
      <!-- Section label -->
      <text x="100" y="-10" text-anchor="middle" font-family="Arial, sans-serif" font-size="12" font-weight="bold" fill="#333">
        Status LEDs
      </text>
      
      <!-- LED1 (Power - Red) -->
      <g transform="translate(10, 0)">
        <circle cx="10" cy="10" r="8" fill="#ff6b6b" stroke="#cc0000" stroke-width="1"/>
        <line x1="10" y1="18" x2="10" y2="30" stroke="#cc0000" stroke-width="2"/>
        <line x1="10" y1="30" x2="10" y2="40" stroke="#666" stroke-width="1"/>
        <text x="10" y="50" text-anchor="middle" font-family="Arial, sans-serif" font-size="8" fill="#333">
          LED1
        </text>
        <text x="10" y="60" text-anchor="middle" font-family="Arial, sans-serif" font-size="8" fill="#333">
          Power
        </text>
      </g>
      
      <!-- LED2 (I2C - Green) -->
      <g transform="translate(50, 0)">
        <circle cx="10" cy="10" r="8" fill="#32cd32" stroke="#008000" stroke-width="1"/>
        <line x1="10" y1="18" x2="10" y2="30" stroke="#008000" stroke-width="2"/>
        <line x1="10" y1="30" x2="10" y2="40" stroke="#666" stroke-width="1"/>
        <text x="10" y="50" text-anchor="middle" font-family="Arial, sans-serif" font-size="8" fill="#333">
          LED2
        </text>
        <text x="10" y="60" text-anchor="middle" font-family="Arial, sans-serif" font-size="8" fill="#333">
          I2C
        </text>
      </g>
      
      <!-- LED3 (Ethernet - Blue) -->
      <g transform="translate(90, 0)">
        <circle cx="10" cy="10" r="8" fill="#1e90ff" stroke="#0066cc" stroke-width="1"/>
        <line x1="10" y1="18" x2="10" y2="30" stroke="#0066cc" stroke-width="2"/>
        <line x1="10" y1="30" x2="10" y2="40" stroke="#666" stroke-width="1"/>
        <text x="10" y="50" text-anchor="middle" font-family="Arial, sans-serif" font-size="8" fill="#333">
          LED3
        </text>
        <text x="10" y="60" text-anchor="middle" font-family="Arial, sans-serif" font-size="8" fill="#333">
          Ethernet
        </text>
      </g>
    </g>
    
    <!-- Buttons (Position: G60-J60) -->
    <g transform="translate(430, 540)">
      <!-- Section label -->
      <text x="50" y="-10" text-anchor="middle" font-family="Arial, sans-serif" font-size="12" font-weight="bold" fill="#333">
        Buttons
      </text>
      
      <!-- BTN1 (Reset) -->
      <g transform="translate(0, 0)">
        <rect x="0" y="0" width="25" height="15" fill="#e0e0e0" stroke="#999" stroke-width="1" rx="3"/>
        <text x="12" y="10" text-anchor="middle" font-family="Arial, sans-serif" font-size="8" fill="#333">
          BTN1
        </text>
        <text x="12" y="25" text-anchor="middle" font-family="Arial, sans-serif" font-size="8" fill="#333">
          Reset
        </text>
      </g>
      
      <!-- BTN2 (Trigger) -->
      <g transform="translate(40, 0)">
        <rect x="0" y="0" width="25" height="15" fill="#e0e0e0" stroke="#999" stroke-width="1" rx="3"/>
        <text x="12" y="10" text-anchor="middle" font-family="Arial, sans-serif" font-size="8" fill="#333">
          BTN2
        </text>
        <text x="12" y="25" text-anchor="middle" font-family="Arial, sans-serif" font-size="8" fill="#333">
          Trigger
        </text>
      </g>
    </g>
    
    <!-- Wiring (I2C Bus) -->
    <g stroke-width="2" stroke-linecap="round">
      <!-- ESP32 GPIO 8 (SDA) to AMG8833 #1 SDA -->
      <path d="M110,85 L680,195" stroke="#1e90ff" fill="none"/>
      
      <!-- ESP32 GPIO 9 (SCL) to AMG8833 #1 SCL -->
      <path d="M90,85 L710,195" stroke="#32cd32" fill="none"/>
      
      <!-- AMG8833 #1 to AMG8833 #2 (SDA) -->
      <path d="M680,195 L680,345" stroke="#1e90ff" fill="none"/>
      
      <!-- AMG8833 #1 to AMG8833 #2 (SCL) -->
      <path d="M710,195 L710,345" stroke="#32cd32" fill="none"/>
      
      <!-- ESP32 GPIO 43 (TX) to USR-TCP232 RXD -->
      <path d="M190,145 L50,455" stroke="#9400d3" fill="none"/>
      
      <!-- ESP32 GPIO 44 (RX) to USR-TCP232 TXD -->
      <path d="M170,145 L30,475" stroke="#808080" fill="none"/>
      
      <!-- 5V Rail to USR-TCP232 VCC -->
      <path d="M50,40 L50,430" stroke="#ff6b6b" fill="none"/>
      
      <!-- GND Rail to USR-TCP232 GND -->
      <path d="M50,530 L50,510" stroke="#000" fill="none"/>
      
      <!-- 5V Rail to Power Section -->
      <path d="M50,40 L350,110" stroke="#ff6b6b" fill="none"/>
      
      <!-- 3.3V Rail to ESP32 3.3V -->
      <path d="M50,75 L110,85" stroke="#ffa500" fill="none"/>
      
      <!-- GND Rail to ESP32 GND -->
      <path d="M50,505 L110,145" stroke="#000" fill="none"/>
      
      <!-- 3.3V Rail to AMG8833 #1 VDD -->
      <path d="M50,75 L680,185" stroke="#ffa500" fill="none"/>
      
      <!-- GND Rail to AMG8833 #1 GND -->
      <path d="M50,505 L680,205" stroke="#000" fill="none"/>
      
      <!-- 3.3V Rail to AMG8833 #2 VDD -->
      <path d="M50,75 L680,335" stroke="#ffa500" fill="none"/>
      
      <!-- GND Rail to AMG8833 #2 GND -->
      <path d="M50,505 L680,355" stroke="#000" fill="none"/>
      
      <!-- AMG8833 #1 AD0 to 3.3V (Address 0x69) -->
      <path d="M710,205 L750,205 L750,185" stroke="#ffa500" fill="none"/>
      
      <!-- AMG8833 #2 AD0 to GND (Address 0x68) -->
      <path d="M710,355 L750,355 L750,505" stroke="#000" fill="none"/>
    </g>
    
    <!-- Pull-up Resistors -->
    <g>
      <!-- SDA Pull-up (Near ESP32) -->
      <rect x="140" y="60" width="15" height="30" fill="#f0e68c" stroke="#999" stroke-width="1" rx="2"/>
      <text x="147" y="75" font-family="Arial, sans-serif" font-size="8" fill="#333" transform="rotate(90, 147, 75)">
        4.7kΩ
      </text>
      <path d="M147,60 L147,80 L50,80" stroke="#1e90ff" stroke-width="1" fill="none"/>
      
      <!-- SCL Pull-up (Near ESP32) -->
      <rect x="160" y="60" width="15" height="30" fill="#f0e68c" stroke="#999" stroke-width="1" rx="2"/>
      <text x="167" y="75" font-family="Arial, sans-serif" font-size="8" fill="#333" transform="rotate(90, 167, 75)">
        4.7kΩ
      </text>
      <path d="M167,60 L167,80 L50,80" stroke="#32cd32" stroke-width="1" fill="none"/>
      
      <!-- SDA Pull-up (Near AMG8833 #1) -->
      <rect x="680" y="160" width="15" height="30" fill="#f0e68c" stroke="#999" stroke-width="1" rx="2"/>
      <text x="687" y="175" font-family="Arial, sans-serif" font-size="8" fill="#333" transform="rotate(90, 687, 175)">
        4.7kΩ
      </text>
      <path d="M687,160 L687,180 L750,180 L750,185" stroke="#1e90ff" stroke-width="1" fill="none"/>
      
      <!-- SCL Pull-up (Near AMG8833 #1) -->
      <rect x="700" y="160" width="15" height="30" fill="#f0e68c" stroke="#999" stroke-width="1" rx="2"/>
      <text x="707" y="175" font-family="Arial, sans-serif" font-size="8" fill="#333" transform="rotate(90, 707, 175)">
        4.7kΩ
      </text>
      <path d="M707,160 L707,180 L750,180 L750,185" stroke="#32cd32" stroke-width="1" fill="none"/>
    </g>
    
    <!-- LED Resistors -->
    <g>
      <rect x="35" y="550" width="15" height="30" fill="#f0e68c" stroke="#999" stroke-width="1" rx="2"/>
      <text x="42" y="565" font-family="Arial, sans-serif" font-size="8" fill="#333" transform="rotate(90, 42, 565)">
        220Ω
      </text>
      
      <rect x="75" y="550" width="15" height="30" fill="#f0e68c" stroke="#999" stroke-width="1" rx="2"/>
      <text x="82" y="565" font-family="Arial, sans-serif" font-size="8" fill="#333" transform="rotate(90, 82, 565)">
        220Ω
      </text>
      
      <rect x="115" y="550" width="15" height="30" fill="#f0e68c" stroke="#999" stroke-width="1" rx="2"/>
      <text x="122" y="565" font-family="Arial, sans-serif" font-size="8" fill="#333" transform="rotate(90, 122, 565)">
        220Ω
      </text>
    </g>
    
    <!-- Button Resistors -->
    <g>
      <rect x="425" y="550" width="15" height="30" fill="#f0e68c" stroke="#999" stroke-width="1" rx="2"/>
      <text x="432" y="565" font-family="Arial, sans-serif" font-size="8" fill="#333" transform="rotate(90, 432, 565)">
        10kΩ
      </text>
      
      <rect x="465" y="550" width="15" height="30" fill="#f0e68c" stroke="#999" stroke-width="1" rx="2"/>
      <text x="472" y="565" font-family="Arial, sans-serif" font-size="8" fill="#333" transform="rotate(90, 472, 565)">
        10kΩ
      </text>
    </g>
  </g>

  <!-- Connection Labels -->
  <g font-family="Arial, sans-serif" font-size="10" fill="#333">
    <text x="200" y="100">I2C SDA Bus (Blue)</text>
    <text x="200" y="120">I2C SCL Bus (Green)</text>
    <text x="200" y="140">UART TX (Purple)</text>
    <text x="200" y="160">UART RX (Gray)</text>
    <text x="200" y="180">5V Power Rail (Red)</text>
    <text x="200" y="200">3.3V Power Rail (Orange)</text>
    <text x="200" y="220">GND Rail (Black)</text>
  </g>

  <!-- Component List -->
  <g transform="translate(50, 650)">
    <text x="0" y="0" font-family="Arial, sans-serif" font-size="16" font-weight="bold" fill="#333">
      Component List
    </text>
    
    <g font-family="Arial, sans-serif" font-size="12" fill="#333">
      <text x="0" y="25">• ESP32-S3 DevKitC-1 (1x)</text>
      <text x="0" y="45">• AMG8833 Thermal Sensor (2x) - 0x69 &amp; 0x68</text>
      <text x="0" y="65">• USR-TCP232-410S (1x) - Serial-to-Ethernet</text>
      <text x="0" y="85">• AMS1117-3.3V Voltage Regulator (1x)</text>
      <text x="0" y="105">• 1N4007 Diode (1x) - Reverse polarity protection</text>
      <text x="0" y="125">• 4.7kΩ Resistors (4x) - I2C pull-ups</text>
      <text x="0" y="145">• 220Ω Resistors (3x) - LED current limiting</text>
      <text x="0" y="165">• 10kΩ Resistors (2x) - Button pull-ups</text>
      <text x="0" y="185">• 10µF, 47µF, 100nF Capacitors (3x) - Decoupling</text>
      <text x="0" y="205">• LEDs (3x) - Power, I2C, Ethernet status</text>
      <text x="0" y="225">• Push Buttons (2x) - Reset, Manual Trigger</text>
    </g>
  </g>

  <!-- Notes -->
  <g transform="translate(50, 730)">
    <text x="0" y="0" font-family="Arial, sans-serif" font-size="14" font-weight="bold" fill="#333">
      Notes:
    </text>
    <g font-family="Arial, sans-serif" font-size="11" fill="#666">
      <text x="0" y="20">1. AMG8833 #1: AD0 connected to 3.3V → I2C Address 0x69</text>
      <text x="0" y="40">2. AMG8833 #2: AD0 connected to GND → I2C Address 0x68</text>
      <text x="0" y="60">3. All I2C pull-up resistors are 4.7kΩ to 3.3V</text>
      <text x="0" y="80">4. USR-TCP232 requires 5V power (not 3.3V)</text>
      <text x="0" y="100">5. ESP32 GPIO are 3.3V but 5V tolerant on inputs</text>
      <text x="0" y="120">6. I2C bus operates at 400 kHz (Fast Mode)</text>
      <text x="0" y="140">7. UART operates at 115200 baud</text>
      <text x="0" y="160">8. Ethernet connects to VLAN 30 (192.168.30.X)</text>
    </g>
  </g>

  <!-- Border -->
  <rect x="40" y="90" width="1120" height="700" fill="none" stroke="#ccc" stroke-width="1"/>

</svg>
